<?xml version="1.0" encoding="utf-8"?>
<!-- Generator: Adobe Illustrator 27.6.1, SVG Export Plug-In . SVG Version: 6.00 Build 0)  -->
<svg version="1.1" id="Layer_1" xmlns="http://www.w3.org/2000/svg" xmlns:xlink="http://www.w3.org/1999/xlink" x="0px" y="0px"
	 viewBox="0 0 150 50" style="enable-background:new 0 0 150 50;" xml:space="preserve">
<style type="text/css">
	.st0{fill:#FFFFFF;}
	.st1{fill:#231F20;}
	.st2{fill:#008BCC;}
</style>
<g>
	<circle class="st0" cx="14.1" cy="24.9" r="8.3"/>
	<path class="st0" d="M43.9,14.3c-3.5,0-9-1.7-9-1.7s-1.2,3.1-1.2,7.2s3.5,15.2,10.5,18c0,0,10-6.3,10-17.4c0-6.6-1-7.8-1-7.8
		S47.5,14.3,43.9,14.3z"/>
	<path class="st1" d="M64.6,22.9v-12h4.5c2.2-0.1,4.3,0.8,4.3,3.1c0,1.3-0.9,2.2-2.1,2.6c1.5,0.3,2.6,1.4,2.6,3.1
		c0,2.4-3,3.3-4.8,3.1L64.6,22.9L64.6,22.9z M69.2,15.7c1.1,0,1.7-0.4,1.7-1.4s-0.6-1.4-1.7-1.4h-2v2.9L69.2,15.7
		C69.2,15.8,69.2,15.7,69.2,15.7z M69.2,20.9c1.2,0,2-0.2,2-1.6c0-1.4-0.8-1.6-2-1.6h-2v3.2H69.2z M78.1,10.9v12h-2.5v-12H78.1z
		 M85.7,21.8c-0.6,0.8-1.3,1.3-2.6,1.3c-0.8,0-2.4-0.6-2.7-1.8c-0.1-0.5-0.1-1-0.1-1.3v-5.4h2.5v5c0,0.9,0.3,1.9,1.5,1.9
		c0.8,0,1.5-0.7,1.5-1.9v-5h2.5v6.8c0,0.5,0.1,1,0.1,1.5h-2.5C85.8,22.8,85.7,21.8,85.7,21.8z M92.6,19.4c0,1.1,0.1,2.1,1.5,2.1
		c0.8,0,1.3-0.3,1.5-1.1h2.2c-0.2,2.1-1.8,2.7-3.8,2.7c-2.9,0-4-1.6-4-4.4c0-2.5,1.5-4.5,4-4.5c1.5,0,2.9,0.6,3.5,2
		c0.2,0.5,0.3,1,0.4,1.5c0.1,0.5,0.1,1,0.1,1.6L92.6,19.4C92.6,19.3,92.6,19.4,92.6,19.4z M95.5,17.7c0-0.9-0.3-1.7-1.5-1.7
		c-1.1,0-1.4,0.8-1.5,1.7H95.5L95.5,17.7z M106.5,14.7c0-1.3-0.8-2.3-2.3-2.3c-1.8,0-2.3,2.7-2.3,4.4s0.5,4.4,2.3,4.4
		c1.5,0,2.3-1,2.3-2.3h2.7c-0.1,3-2.3,4.1-5,4.1c-3.5,0-5-2.7-5-6.3c0-3.5,1.5-6.3,5-6.3c2.8,0,4.9,1.1,5,4.1h-2.7
		C106.5,14.6,106.5,14.7,106.5,14.7z M112.8,14.5l0.1,1.5c0.6-1.3,1.6-1.7,2.9-1.6v2.2h-1.1c-0.4,0-1,0.3-1.2,0.6
		c-0.3,0.5-0.3,0.9-0.3,1.5v4.1h-2.5v-6.7c0-0.3-0.1-1-0.1-1.7H112.8z M121.2,23.2c-2.7,0-4.4-1.8-4.4-4.5s1.6-4.5,4.4-4.5
		c2.7,0,4.4,1.8,4.4,4.5S123.9,23.2,121.2,23.2z M121.2,21.5c1.5,0,1.8-1.5,1.8-2.8c0-1.3-0.3-2.8-1.8-2.8c-1.5,0-1.8,1.5-1.8,2.8
		C119.4,20,119.7,21.5,121.2,21.5z M131.6,16.8c0-0.6-0.6-0.8-1.1-0.8c-0.7,0-1,0.2-1,0.8c0,1.3,4.8,0.6,4.8,3.7
		c0,1.8-2.2,2.7-3.8,2.7c-1.9,0-3.6-0.8-3.7-2.6h2.3c0.1,0.6,0.6,1,1.4,1c0.7,0,1.2-0.3,1.2-0.9c0-0.7-1.2-1-1.7-1
		c-1.6-0.3-3.1-0.8-3.1-2.6c0-1.7,2.1-2.5,3.5-2.5c1.7,0,3.3,0.6,3.3,2.5h-2.3C131.6,16.9,131.6,16.8,131.6,16.8z M139.8,16.8
		c0-0.6-0.6-0.8-1.1-0.8c-0.7,0-1,0.2-1,0.8c0,1.3,4.8,0.6,4.8,3.7c0,1.8-2.2,2.7-3.8,2.7c-1.9,0-3.6-0.8-3.7-2.6h2.3
		c0.1,0.6,0.6,1,1.4,1c0.7,0,1.2-0.3,1.2-0.9c0-0.7-1.2-1-1.7-1c-1.6-0.3-3.1-0.8-3.1-2.6c0-1.7,2.1-2.5,3.5-2.5
		c1.7,0,3.3,0.6,3.3,2.5h-2.3L139.8,16.8L139.8,16.8z M64.6,39.2v-12h4.5c2.2-0.1,4.3,0.8,4.3,3.1c0,1.3-0.9,2.2-2.1,2.6
		c1.5,0.3,2.6,1.4,2.6,3.1c0,2.4-3,3.3-4.8,3.1L64.6,39.2C64.6,39.2,64.6,39.2,64.6,39.2z M69.2,32c1.1,0,1.7-0.4,1.7-1.4
		s-0.6-1.4-1.7-1.4h-2v2.9L69.2,32z M69.2,37.1c1.2,0,2-0.2,2-1.6c0-1.4-0.8-1.6-2-1.6h-2v3.2H69.2z M78.1,27.2v12h-2.5v-12H78.1z
		 M85.7,38.1c-0.6,0.8-1.3,1.3-2.6,1.3c-0.8,0-2.4-0.6-2.7-1.9c-0.1-0.5-0.1-1-0.1-1.3v-5.4h2.5v5.1c0,0.9,0.3,1.9,1.5,1.9
		c0.8,0,1.5-0.7,1.5-1.9v-5h2.5v6.8c0,0.5,0.1,1,0.1,1.5h-2.5C85.8,39.1,85.7,38.1,85.7,38.1z M92.6,35.7c0,1.1,0.1,2.1,1.5,2.1
		c0.8,0,1.3-0.3,1.5-1.1h2.2c-0.2,2.1-1.8,2.7-3.8,2.7c-2.9,0-4-1.6-4-4.4c0-2.5,1.5-4.5,4-4.5c1.5,0,2.9,0.6,3.5,2
		c0.2,0.5,0.3,1,0.4,1.5s0.1,1,0.1,1.6L92.6,35.7L92.6,35.7z M95.5,34c0-0.9-0.3-1.7-1.5-1.7c-1.1,0-1.4,0.8-1.5,1.7H95.5L95.5,34z
		 M106.1,30.6c-0.1-1.2-0.8-1.8-2-1.8c-1,0-1.9,0.5-1.9,1.5c0,1.3,1.2,1.5,2.2,1.7c1.8,0.5,4.5,1,4.5,3.4c0,3-2.6,4-5.2,4
		c-2.7,0-4.7-1-4.6-4.1h2.6c-0.1,1.3,0.7,2.2,2,2.2c1,0,2.4-0.3,2.4-1.6c0-1.4-1.7-1.5-2.7-1.8c-1.7-0.4-4-1.2-4-3.3
		c0-2.7,2.5-4,5-4c2.3,0,4.1,1.3,4.1,3.7C108.7,30.5,106.1,30.6,106.1,30.6z M110.7,39.2v-12h2.5v4.7c0.5-0.8,1.3-1.3,2.6-1.3
		c0.8,0,2.4,0.6,2.7,1.8c0.1,0.5,0.1,1,0.1,1.3v5.4h-2.4v-5c0-0.9-0.3-1.9-1.5-1.9c-0.8,0-1.5,0.7-1.5,1.9v5H110.7L110.7,39.2z
		 M123.5,27.2v2.2h-2.6v-2.2H123.5z M123.3,30.8v8.4h-2.5v-8.4H123.3z M127.7,35.7c0,1.1,0.1,2.1,1.5,2.1c0.8,0,1.3-0.3,1.5-1.1h2.2
		c-0.2,2.1-1.8,2.7-3.8,2.7c-2.9,0-4-1.6-4-4.4c0-2.5,1.5-4.5,4-4.5c1.5,0,2.9,0.6,3.5,2c0.2,0.5,0.3,1,0.4,1.5s0.1,1,0.1,1.6
		L127.7,35.7L127.7,35.7z M130.6,34c0-0.9-0.3-1.7-1.5-1.7c-1.1,0-1.4,0.8-1.5,1.7H130.6L130.6,34z M137.2,27.2v12h-2.5v-12H137.2z
		 M145.1,27.2h2.5v10.4c0,0.6,0.1,1.1,0.1,1.7h-2.5c0-0.4-0.1-0.8-0.1-1.2c-0.6,1-1.5,1.5-2.6,1.5c-2.4,0-3.6-2.3-3.6-4.5
		c0-2.2,1.3-4.5,3.9-4.5c0.8,0,1.7,0.5,2.2,1.2L145.1,27.2L145.1,27.2z M143.3,37.8c1.3,0,1.8-1.6,1.8-2.8c0-1.1-0.4-2.8-1.8-2.8
		c-1.6,0-1.8,1.5-1.8,2.8C141.5,36.2,141.7,37.8,143.3,37.8z M143.7,22.9c-0.4,0-0.8-0.3-0.8-0.8s0.3-0.8,0.8-0.8
		c0.4,0,0.8,0.3,0.8,0.8S144.2,22.9,143.7,22.9 M143.7,21.1c-0.5,0-0.9,0.4-0.9,0.9s0.4,0.9,0.9,0.9c0.5,0,0.9-0.4,0.9-0.9
		S144.2,21.1,143.7,21.1"/>
	<path class="st1" d="M143.7,22h-0.2v-0.3h0.3c0.1,0,0.3,0,0.3,0.1C144.1,22,143.9,22,143.7,22 M144.2,21.8c0-0.2-0.1-0.3-0.3-0.3
		h-0.5v1h0.1v-0.5h0.2l0.3,0.5h0.1l-0.3-0.5C144.1,22.1,144.2,22,144.2,21.8 M149.1,39.1c-0.4,0-0.8-0.3-0.8-0.8s0.3-0.8,0.8-0.8
		s0.8,0.3,0.8,0.8S149.5,39.1,149.1,39.1 M149.1,37.4c-0.5,0-0.9,0.4-0.9,0.9s0.4,0.9,0.9,0.9c0.5,0,0.9-0.4,0.9-0.9
		S149.6,37.4,149.1,37.4"/>
	<path class="st1" d="M149,38.3h-0.2v-0.3h0.3c0.1,0,0.3,0,0.3,0.1C149.4,38.3,149.2,38.3,149,38.3 M149.6,38.1
		c0-0.2-0.1-0.3-0.3-0.3h-0.5v1h0.1v-0.5h0.2l0.3,0.5h0.1l-0.3-0.5C149.4,38.3,149.6,38.3,149.6,38.1"/>
	<g>
		<path class="st2" d="M26.7,36.1c-0.9,0-1.6,0.7-1.6,1.6c0,0.9,0.7,1.6,1.6,1.6c0.8,0,1.6-0.7,1.6-1.6
			C28.3,36.8,27.6,36.1,26.7,36.1z M26.7,39c-0.8,0-1.3-0.6-1.3-1.3s0.6-1.3,1.3-1.3s1.3,0.6,1.3,1.3C28.1,38.5,27.6,39,26.7,39z"/>
		<path class="st2" d="M27.6,37.3c0-0.3-0.1-0.5-0.6-0.5h-0.8v1.8h0.2v-0.8h0.4l0.5,0.8h0.3L27,37.8C27.4,37.8,27.6,37.6,27.6,37.3z
			 M26.7,37.6h-0.3V37h0.5c0.2,0,0.4,0,0.4,0.3C27.4,37.6,26.9,37.6,26.7,37.6z M14.2,27.1c-0.1,0-0.1,0-0.1,0.1l-2.6,4
			c0.8,0.3,1.7,0.6,2.7,0.6s1.9-0.2,2.7-0.6L14.2,27.1C14.3,27.1,14.2,27.1,14.2,27.1z M11.6,23.7l-4-0.3c-0.1,0.5-0.2,1-0.2,1.6
			c0,1.7,0.6,3.2,1.6,4.4l2.8-5.3C12,23.9,11.9,23.8,11.6,23.7z"/>
		<path class="st2" d="M20.5,18.6v-7.9H7.9v7.9H0v12.6h7.9v7.9h12.6v-7.9h7.9V18.6H20.5z M14.2,17.2c3.1,0,5.8,1.8,7,4.5h-5.6
			c-0.8,0-1.1-0.5-1.2-0.8c0-0.4,0.1-0.6,0.4-1c0.4-0.6,0.1-1.5-0.8-1.6c-0.9,0-1.2,1-0.8,1.6c0.3,0.5,0.4,0.6,0.4,1
			c0,0.3-0.3,0.8-1.2,0.8H7C8.4,19,11.1,17.2,14.2,17.2z M6.4,25c0-1,0.2-1.9,0.5-2.7l5.2,0.5c1,0.1,1.1,1.1,0.8,1.7l-3.5,6.8
			C7.6,29.7,6.4,27.5,6.4,25z M18.4,31.5c-1.3,0.8-2.7,1.3-4.3,1.3s-3.1-0.5-4.3-1.3l3.8-5.6c0.3-0.4,0.7-0.3,1,0
			C14.6,25.9,18.4,31.5,18.4,31.5z M19,31.1l-3.5-6.7c-0.3-0.6-0.1-1.5,0.8-1.7l5.2-0.5c0.3,0.8,0.5,1.8,0.5,2.7
			C22,27.5,20.8,29.7,19,31.1z"/>
		<path class="st2" d="M19.3,20.6c-0.8-1-1.9-1.7-3.2-2.1c0.4,0.6,0.1,1.5-0.3,1.9c-0.1,0.1,0,0.1,0,0.1H19.3z M16.8,23.7
			c-0.3,0-0.3,0.1-0.2,0.3l2.8,5.3c1-1.2,1.6-2.7,1.6-4.4c0-0.6-0.1-1.1-0.2-1.6C20.7,23.3,16.8,23.7,16.8,23.7z M12.3,18.6
			c-1.3,0.3-2.4,1.1-3.2,2.1h3.5c0.1,0,0.1-0.1,0-0.1C12.3,20,11.9,19.2,12.3,18.6z"/>
	</g>
	<g>
		<path class="st2" d="M53.7,10.8c-3.1,1.5-6.1,2.4-9.7,2.4c-3.5,0-6.6-0.8-9.7-2.4c-2,4-2.3,10.4-0.6,15.7
			c1.7,5.2,4.9,9.9,10.2,12.8c5.4-2.9,8.6-7.7,10.2-12.8C56,21.1,55.7,14.7,53.7,10.8z M52.3,25.9c-1.5,4.4-3.8,8.3-8.2,11
			c-4.4-2.7-6.8-6.6-8.2-11c-1.3-3.9-1.7-8.5-0.2-12c2.2,0.8,3.5,1,4.7,1.2c1.1,0.2,2.1,0.3,3.8,0.3c1.6,0,2.6-0.1,3.8-0.3
			c1.2-0.2,2.5-0.4,4.7-1.2C53.9,17.4,53.6,22,52.3,25.9z"/>
		<path class="st2" d="M47.8,16c-1.3,0.1-2.6,0.3-3.8,0.3c-1.3,0-2.5-0.1-3.8-0.3c-1.3-0.2-2.5-0.5-3.8-0.8c-0.9,2.6-0.8,6,0,8.9
			c1.3,5.6,4.7,9.8,7.7,11.7c3-1.9,6.3-6.1,7.7-11.7c0.7-3,0.9-6.3,0-8.9C50.3,15.5,49.1,15.8,47.8,16z M43.3,33.2
			c-0.1,0.3,0.1,0.4,0.1,0.6c-0.1,0.2-0.2,0.1-0.3,0c-0.1-0.2-0.2-0.3-0.2-0.7c-0.1-0.6,0.2-0.8,0.3-0.9c0.1-0.1,0.3-0.2,0.3-0.2
			l0.1,0.9C43.4,32.8,43.3,32.9,43.3,33.2z M44.5,34.1c0,0.1-0.1,0.3-0.3,0.3c-0.2,0-0.3-0.1-0.3-0.3c-0.1-1.1-0.1-3.1-0.1-3.1
			s0.3,0.1,0.5,0.2c0.1,0,0.2,0.1,0.3,0.3c0,0.1,0.1,0.1,0.1,0.1C44.5,32.3,44.5,33.7,44.5,34.1z M45.4,32c-0.3,0.2-0.6,0.3-0.6,0.3
			v-0.8c0,0,0.1-0.1,0.1-0.2c-0.1-0.1-0.6-0.6-0.9-0.7c-0.3-0.1-0.8-0.3-1-0.3c-0.7-0.3-1-0.9-0.7-1.6c0.1-0.3,0.4-0.4,0.6-0.5
			c0.1-0.1,0.4-0.1,0.4-0.1l0.1,1c0,0-0.1,0-0.1,0.1s0.1,0.3,0.1,0.3c0.5,0.2,1.1,0.5,1.6,0.8c0.6,0.3,0.8,0.6,0.8,1.1
			C45.8,31.6,45.6,31.9,45.4,32z M43.6,27.5c0.5,0.1,0.6,0.1,1,0.1l-0.1,1.9l-0.4-0.2l-0.4-0.2C43.8,29.1,43.6,27.5,43.6,27.5z
			 M46.4,27.9c-0.1,0.3-0.3,0.6-0.6,0.8S45,28.9,45,28.9v-1.2c0,0,0.1,0,0.1-0.1c0.1-0.1,0.1-0.1,0.1-0.2c0-0.1-0.1-0.1-0.1-0.2
			c-0.1-0.1-0.3-0.1-0.3-0.1L43.1,27c-1-0.1-1.7-0.8-1.7-1.7c0.1-0.6,0.7-0.8,1.2-1l0.3,0.7c0.1,0.3,0.1,0.4,0.1,0.4
			s-0.2,0.1-0.2,0.2s0.2,0.2,0.3,0.2c0.7,0.1,1.7,0.2,2.2,0.4c0.3,0.1,0.6,0.3,0.8,0.6C46.4,27.2,46.5,27.5,46.4,27.9z M43.2,23.4
			c0,0,0.2,0,0.8,0.1c0.4,0,0.8,0.1,0.8,0.1l-0.1,2.1c-0.5-0.1-0.8-0.1-1.2-0.2c-0.1-0.8-0.3-1-0.6-1.6c-0.1-0.1,0-0.2,0-0.2
			c0.1-0.1,0.3-0.1,0.3-0.1S43.2,23.4,43.2,23.4z M45.1,25.5c0,0,0.1-1,0.1-1.5c0.3-0.1,0.3-0.3,0.2-0.6c-0.1-0.1-0.3-0.2-0.3-0.2
			c-0.6-0.1-1-0.1-1.6-0.2c-0.5-0.1-0.9-0.1-1.3-0.2c-0.9-0.2-1.7-0.7-2.2-1.5c-0.5-1-0.1-2.4,1-2.9c0.8-0.4,1.6-0.3,2.4,0
			c0.3,0.1,0.4,0.3,0.6,0.6c0.1,0.1,0.2,0.1,0.3,0.3c0.1,0.1-0.1,0.1-0.1,0.1c-0.1,0.1-0.8,0.1-0.9,0h-0.8c0.2,0.1,0.5,0.3,0.8,0.4
			c0.1,0.1,0.3,0.1,0.4,0.1c0.1,0,0.2,0.1,0.2,0.1s-0.1,0.1-0.3,0.1c-0.2,0.1-0.5,0.1-0.8,0c-0.4-0.1-0.6-0.3-0.9-0.2
			c-0.2,0.1-0.2,0.3-0.1,0.6c0.1,0.4,0.5,0.6,0.8,0.7c1.2,0.4,2.5,0.1,3.6,0.8c0.4,0.2,1,0.7,1,1.2C47.5,25.2,45.1,25.5,45.1,25.5z
			 M47.2,19c-0.1,0.2-0.1,0.2-0.3,0.3c-0.3,0.3-0.7,0.6-1.1,0.9c-0.3,0.2-0.5,0.3-0.7,0.7C45,21,45,21.1,45,21.1
			c-0.7-0.1-1.3-0.1-1.9-0.3v-0.6c0,0,0.6,0,0.7-0.4c0,0,0-0.1-0.1-0.2c-0.1-0.1-0.3-0.1-0.3-0.1c0.5,0.1,1,0.3,1.5,0.5
			c0-0.1-0.1-0.3-0.1-0.3c-0.1-0.1-0.1-0.1-0.3-0.2c-0.3-0.1-1-0.1-1-0.1H44c0.1,0,0.3-0.1,0.3-0.1c0.1-0.1,0-0.2-0.1-0.3L44,18.7
			c-0.1-0.1-0.2-0.3-0.3-0.4c-0.1-0.2-0.7-0.4-0.7-0.4s-0.1-0.3,0.1-0.5c0.1-0.1,0.3-0.1,0.4-0.1c0.3,0.2,0.8,0.4,1.3,0.6
			c0.1,0.1,0.1,0.1,0.1,0.3c0.1,0.3-0.1,0.8,0,1c0,0.1,0.1,0.1,0.1,0.1c0.5-0.3,0.8-0.7,1.3-0.9C46.7,18.2,47.3,18.5,47.2,19z
			 M53.8,36.2c-0.8,0-1.5,0.7-1.5,1.5c0,0.8,0.7,1.5,1.5,1.5c0.8,0,1.5-0.7,1.5-1.5C55.3,36.9,54.6,36.2,53.8,36.2z M53.8,39
			c-0.8,0-1.3-0.6-1.3-1.3c0-0.8,0.6-1.3,1.3-1.3s1.3,0.6,1.3,1.3C55.1,38.5,54.6,39,53.8,39z"/>
		<path class="st2" d="M54.6,37.3c0-0.3-0.1-0.5-0.6-0.5h-0.8v1.8h0.2v-0.8h0.3l0.5,0.8h0.3L54,37.8C54.4,37.8,54.6,37.6,54.6,37.3z
			 M53.8,37.6h-0.3v-0.6h0.5c0.2,0,0.4,0,0.4,0.3S54,37.6,53.8,37.6z M42.5,18.5c0.1,0.1,0.1,0.3,0.3,0.3c0.1,0,0.2-0.1,0.3-0.1h0.1
			c-0.2-0.2-0.7-0.2-1-0.3C42.4,18.5,42.5,18.4,42.5,18.5z"/>
	</g>
</g>
</svg>
