<?xml version="1.0" encoding="utf-8"?>
<!-- Generator: Adobe Illustrator 27.5.0, SVG Export Plug-In . SVG Version: 6.00 Build 0)  -->
<svg version="1.1" id="Layer_1" xmlns="http://www.w3.org/2000/svg" xmlns:xlink="http://www.w3.org/1999/xlink" x="0px" y="0px"
	 viewBox="0 0 150 50" style="enable-background:new 0 0 150 50;" xml:space="preserve">
<style type="text/css">
	.st0{fill:#7D3F98;}
</style>
<g>
	<g>
		<path class="st0" d="M68.4,29.5c7,0,10.6-2.2,10.6-6.9c0-4.1-3-6.8-9.4-6.8c-7.8,0-10.9,3.5-11.6,9.7c-1.1-0.1-2.4-0.1-4.1-0.1
			c0-0.3,0-0.7,0-1c0-6.3-2.6-8.6-9.6-8.6c-3.4,0-6.4,0.5-8.3,1.3l0.3,5.1c1.6-0.8,4-1.7,6.3-1.7c3.2,0,4.2,1.3,4.2,4.5l0,0.5
			c-0.2,0-0.8,0-1.1,0c-8,0-11.6,2.4-11.6,6.9c0,4.6,2.3,7.3,8.8,7.3c3.4,0,6.8-0.5,11.2-0.5c-0.3-1.8-0.3-4.5-0.3-6.3
			c0-1,0-2.1,0.1-3.4c1.9,0,3.2,0.1,4.1,0.1c0.7,7.4,4.5,10.1,12.5,10.1c3,0,5.9-0.5,7.5-1.2l-0.3-5.1c-1.6,0.9-3.7,1.6-6.1,1.6
			c-3.9,0-6-2-6-5.3v-0.2C66.2,29.5,67.6,29.5,68.4,29.5z M44.5,35.1c-2.4,0-3.5-0.8-3.5-2.8c0-2,1.3-3.1,4.6-3.1c0.3,0,0.7,0,0.9,0
			c0,1.9-0.1,4.1,0,5.6C46,35,45.2,35.1,44.5,35.1z M65.4,25.6v-0.1c0-3.2,1-5.5,3.9-5.5c1.6,0,2.7,0.9,2.7,2.4
			c0,2.2-1.5,3.2-4.5,3.2C66.8,25.7,66,25.7,65.4,25.6z M93.3,34.5c-2.3,0-3-0.9-3-4.3v-8.8h4.6v-4.9h-4.6c0-1.7,0.1-4.3,0.3-6h-4.3
			c-0.6,4.3-1.8,6.5-5.7,7.1c0,1.1,0,2.7,0,3.8h2.6c0,2.4-0.1,6.9-0.1,10.9c0,5.2,2.7,7.3,7.7,7.3c2.4,0,4.2-0.4,4.8-0.5l-0.3-5
			C94.9,34.3,94.1,34.5,93.3,34.5z M142.1,24.4c0-6.3-2.6-8.6-9.6-8.6c-3.4,0-6.4,0.5-8.3,1.3l0.3,5.1c1.6-0.8,4-1.7,6.3-1.7
			c3.2,0,4.2,1.3,4.2,4.5v0.5c-0.2,0-0.8,0-1.1,0c-8,0-11.6,2.4-11.6,6.9c0,4.6,2.3,7.3,8.8,7.3c3.4,0,6.8-0.5,11.2-0.5
			c-0.3-1.8-0.3-4.5-0.3-6.3C141.9,30.7,142.1,27.8,142.1,24.4z M132.7,35.1c-2.4,0-3.5-0.8-3.5-2.8c0-2,1.3-3.1,4.6-3.1
			c0.3,0,0.7,0,0.9,0c0,1.9-0.1,4.1,0.1,5.6C134.3,35,133.5,35.1,132.7,35.1z M119.3,28.5c0-1.9,0-4.4,0-4.4c0-5.7-2.5-8.3-9.6-8.3
			c-4,0-6.8,0.7-11.3,0.7c0.3,4,0.3,9,0.2,12c0,3.1-0.1,8.7-0.2,10.5h7.6c-0.2-1.8-0.3-7-0.3-10.5c0-2,0-4.4,0.1-7.7
			c0.8-0.3,1.7-0.5,2.8-0.5c2.7,0,3.5,1.3,3.5,4.7c0,0,0,2.2,0,3.4c0,3.1-0.1,8.7-0.2,10.5h7.6C119.4,37.2,119.3,32,119.3,28.5z
			 M24.9,14.8c-0.7-0.7-1.6-1.1-2.6-1.1c-0.9,0-1.9,0.4-2.6,1.1L15.6,19l-4.2-4.2c-0.7-0.7-1.6-1.1-2.6-1.1c-0.9,0-1.9,0.4-2.6,1.1
			l-5.1,5.1c-1.4,1.4-1.4,3.7,0,5.1l14.5,14.5L30.1,25c1.4-1.4,1.4-3.7,0-5.1L24.9,14.8z M148.2,17.1c0-0.8-0.5-1.1-1.4-1.1h-1.4
			v3.8h0.6v-1.6h0.6l1,1.6h0.7l-1.1-1.7C147.8,18.1,148.2,17.8,148.2,17.1z M146,17.6v-1.1h0.8c0.4,0,0.8,0.1,0.8,0.5
			c0,0.5-0.4,0.6-0.9,0.6L146,17.6L146,17.6z M146.7,14.4c-1.8,0-3.4,1.4-3.4,3.4c0,1.9,1.4,3.4,3.4,3.4c1.8,0,3.3-1.4,3.3-3.4
			S148.4,14.4,146.7,14.4z M146.7,20.7c-1.6,0-2.6-1.3-2.6-2.8c0-1.7,1.1-2.8,2.6-2.8c1.5,0,2.6,1.2,2.6,2.8
			C149.3,19.5,148.1,20.7,146.7,20.7z"/>
	</g>
</g>
</svg>
