<?xml version="1.0" encoding="utf-8"?>
<!-- Generator: Adobe Illustrator 27.6.1, SVG Export Plug-In . SVG Version: 6.00 Build 0)  -->
<svg version="1.1" id="Layer_1" xmlns="http://www.w3.org/2000/svg" xmlns:xlink="http://www.w3.org/1999/xlink" x="0px" y="0px"
	 viewBox="0 0 94.1 50.1" style="enable-background:new 0 0 94.1 50.1;" xml:space="preserve">
<style type="text/css">
	.st0{fill:none;}
	.st1{fill:#0033FF;}
	.st2{fill-rule:evenodd;clip-rule:evenodd;fill:#03CC54;}
</style>
<g>
	<path class="st0" d="M89,46.4c-0.6,0-1,0.5-1.1,1.1h2.2C90,46.9,89.6,46.4,89,46.4z"/>
	<path class="st0" d="M60.2,48.6L60.2,48.6c0,0.4,0.4,0.6,0.8,0.6c0.6,0,1.1-0.4,1.1-0.9v-0.2c-0.2-0.1-0.6-0.2-1-0.2
		C60.6,48,60.2,48.2,60.2,48.6z"/>
	<path class="st0" d="M80.6,25.2c-3.3,0-4.6,3.2-4.6,7.1s1.4,7.1,4.6,7.1c3.3,0,4.6-3.2,4.6-7.1S83.8,25.2,80.6,25.2z"/>
	<path class="st0" d="M37.8,47.6c3,0,4.7-1.8,4.7-3.5c0-1.4-0.8-2.7-3.3-2.7h-4.1c-1.1,0.5-1.8,1.8-1.8,3.1
		C33.3,46.4,34.9,47.6,37.8,47.6z"/>
	<path class="st0" d="M56.6,46.4c-0.6,0-1,0.5-1.1,1.1h2.2C57.6,46.9,57.2,46.4,56.6,46.4z"/>
	<path class="st0" d="M37.6,25c-2,0-3.4,1.7-3.4,4.6s1.3,4.6,3.4,4.6c2,0,3.3-1.7,3.3-4.6S39.6,25,37.6,25z"/>
	<path class="st0" d="M80,48.6L80,48.6c0,0.4,0.4,0.6,0.8,0.6c0.6,0,1.1-0.4,1.1-0.9v-0.2c-0.2-0.1-0.6-0.2-1-0.2
		C80.3,48,80,48.2,80,48.6z"/>
	<path class="st1" d="M52.1,45.6c-0.7,0-1,0.3-1.3,0.7V44h-1v5.8h1v-2.4c0-0.7,0.4-1,0.9-1c0.6,0,0.9,0.4,0.9,1v2.4h1v-2.7
		C53.6,46.2,53,45.6,52.1,45.6z"/>
	<path class="st1" d="M56.6,45.6c-1.2,0-2.1,1-2.1,2.2l0,0c0,1.3,0.9,2.2,2.2,2.2c0.8,0,1.3-0.3,1.7-0.8l-0.6-0.5
		c-0.3,0.3-0.7,0.5-1.1,0.5c-0.6,0-1.1-0.4-1.2-1.1h3.1c0-0.1,0-0.2,0-0.3C58.6,46.7,57.9,45.6,56.6,45.6z M55.5,47.5
		c0.1-0.7,0.5-1.1,1.1-1.1s1,0.5,1.1,1.1H55.5z"/>
	<path class="st1" d="M58.3,40.2c0-0.8-0.3-0.9-0.3-0.9h-0.4c-0.7,0-1.5-0.7-1.5-1.5v-7.4c0-3,1.8-4.8,4.1-4.8c2,0,3.4,1.1,3.4,3.5
		v8.7c0,0.7-0.7,1.5-1.5,1.5h-0.4c0,0-0.3,0.1-0.3,0.8s0.3,1.1,0.3,1.1h8.6c0,0,0.3-0.3,0.3-1.1c0-0.7-0.3-0.9-0.3-0.9h-0.4
		c-0.7,0-1.5-0.7-1.5-1.5V29c0-4.2-2.6-6.3-6.4-6.3c-2.8,0-5,1.3-6.3,3.3c0,0,0-1.9,0-2.2c0-0.6-0.6-0.8-1.3-0.6
		c-0.5,0.2-2.9,1.1-5,1.1c-0.1,0.2-0.3,0.5-0.3,1c0,0.4,0.1,0.7,0.3,1h0.4c0.7,0,1.5,0.7,1.5,1.5v10.1c0,0.7-0.7,1.5-1.5,1.5h-0.4
		c0,0-0.3,0-0.3,0.8s0.3,1.1,0.3,1.1H58C58,41.3,58.3,41,58.3,40.2z"/>
	<path class="st1" d="M42.3,24.1c-1.3-0.9-2.9-1.4-4.7-1.4c-4.5,0-7.8,3-7.8,6.8c0,2.3,1.3,4.2,3,5.4l-3.1,3.8c0,0-0.4,0.7-0.4,1.4
		s0.4,1.2,0.4,1.2h2.2c-1.6,0.9-2.3,2.5-2.3,3.9c0,2.6,2.3,4.8,7.4,4.8c5.2,0,10-2.7,10-7c0-3.1-1.8-5.1-6.4-5.1h-6.9l1.3-1.8
		c0.8,0.3,1.4,0.4,2.5,0.4c4.5,0,7.8-3.1,7.8-6.8c0-1.2-0.3-2.3-0.9-3.2h2.7c0.1-0.2,0.3-0.6,0.3-1.1c0-0.4-0.2-0.9-0.3-1.1
		L42.3,24.1L42.3,24.1z M35.1,41.4h4.1c2.4,0,3.3,1.4,3.3,2.7c0,1.7-1.7,3.5-4.7,3.5c-2.8,0-4.4-1.3-4.4-3.2
		C33.3,43.2,34.1,41.9,35.1,41.4z M37.6,34.1c-2,0-3.4-1.7-3.4-4.6s1.3-4.6,3.4-4.6c2,0,3.3,1.7,3.3,4.6
		C40.9,32.4,39.6,34.1,37.6,34.1z"/>
	<path class="st1" d="M16.3,35.2c-0.6-0.2-1.1,0-1.1,0c-1.4,2.4-2.6,3.4-4.5,3.4c-3.4,0-5.6-3.1-5.6-6.8c0-3.4,1.5-6.8,5.1-6.8
		c2.2,0,3.9,1.4,3.9,3.5l0.1,0.7c0,0-0.1,0.3,0.9,0.3c0.9,0,1.2-0.3,1.2-0.3L16,24.4c0,0,0-0.1-0.1-0.2S15.7,24,15.7,24
		c-1.4-0.8-3.3-1.3-5.6-1.3C4.9,22.7,0,26.2,0,32.5c0,5.7,4.3,9.3,9.2,9.3c4.6,0,6.7-2.9,7.7-6.1C17,35.7,16.7,35.4,16.3,35.2z"/>
	<path class="st1" d="M22.8,21.5c1.7,0,3-1.4,3-3.1s-1.4-3.1-3-3.1c-1.7,0-3,1.4-3,3.1S21.1,21.5,22.8,21.5z"/>
	<path class="st1" d="M25.2,27.1c0-0.7,0.7-1.5,1.5-1.5h0.4c0,0,0.3-0.2,0.3-0.9c0-0.7-0.3-1.1-0.3-1.1h-8.6c0,0-0.3,0.4-0.3,1.1
		s0.3,0.8,0.3,0.8h0.4c0.7,0,1.5,0.7,1.5,1.5v7.3v3.5c0,0.7-0.7,1.5-1.5,1.5h-0.4c0,0-0.3,0.1-0.3,0.8s0.3,1.1,0.3,1.1h8.6
		c0,0,0.3-0.4,0.3-1.1c0-0.7-0.3-0.9-0.3-0.9h-0.4c-0.7,0-1.5-0.7-1.5-1.5v-2.5C25.2,35.2,25.2,27.1,25.2,27.1z"/>
	<path class="st1" d="M81,45.6c-0.7,0-1.1,0.1-1.6,0.4l0.3,0.8c0.4-0.2,0.7-0.3,1.2-0.3c0.7,0,1,0.3,1,0.9v0.1
		c-0.3-0.1-0.7-0.2-1.2-0.2c-1,0-1.7,0.4-1.7,1.4l0,0c0,0.8,0.7,1.3,1.5,1.3c0.6,0,1.1-0.3,1.4-0.6v0.5h1v-2.5
		C82.8,46.3,82.2,45.6,81,45.6z M81.9,48.4c0,0.5-0.5,0.9-1.1,0.9c-0.5,0-0.8-0.2-0.8-0.6l0,0c0-0.4,0.4-0.7,1-0.7
		c0.4,0,0.7,0.1,1,0.2L81.9,48.4L81.9,48.4z"/>
	<path class="st1" d="M85,46.6v-0.9h-1v4.2h1v-1.6c0-1.1,0.6-1.7,1.4-1.7h0.1v-1C85.7,45.6,85.2,46,85,46.6z"/>
	<path class="st1" d="M92.2,38.7c0-0.6-0.3-0.7-0.3-0.7h-0.4c-0.7,0-1.5-0.7-1.5-1.5V23.7c0,0,0-0.4-0.4-0.4h-1.1
		c-0.2,0-0.4,0.2-0.4,0.2l-1.6,2c-0.2,0.2-0.4,0-0.4,0l0,0c-1-1.2-2.8-2.7-5.9-2.7c-4.7,0-9.2,3.4-9.2,9.7c0,5.9,3.9,9.4,8.6,9.4
		c2.7,0,4.4-1.1,5.8-2.9v2.2c0,0,0,0.5,0.6,0.6c0.5,0.1,0.9-0.1,0.9-0.1l5-2.2C91.9,39.6,92.2,39.3,92.2,38.7z M80.6,39.4
		c-3.3,0-4.6-3.2-4.6-7.1s1.4-7.1,4.6-7.1c3.3,0,4.6,3.2,4.6,7.1S83.8,39.4,80.6,39.4z"/>
	<g>
		<path class="st1" d="M92.1,46.4l-0.2-0.1c-0.1,0-0.1,0-0.2-0.1l-0.1-0.1c0-0.1,0-0.1,0.1-0.1c0,0,0.1,0,0.2,0s0.1,0,0.2,0
			s0.1,0.1,0.1,0.2h0.3c0-0.1-0.1-0.2-0.2-0.3s-0.2-0.1-0.4-0.1c-0.2,0-0.3,0-0.4,0.1s-0.1,0.2-0.1,0.3s0,0.2,0.1,0.3
			c0.1,0,0.1,0.1,0.3,0.1h0.1c0.1,0,0.1,0,0.2,0.1l0.1,0.1c0,0.1,0,0.1-0.1,0.2c0,0-0.1,0-0.2,0s-0.2,0-0.2-0.1v-0.1h-0.3
			c0,0.1,0,0.2,0.1,0.3s0.2,0.1,0.4,0.1c0.2,0,0.3,0,0.4-0.1s0.1-0.2,0.1-0.3s0-0.2-0.1-0.3C92.3,46.5,92.2,46.4,92.1,46.4z"/>
		<path class="st1" d="M93.5,45.8l-0.2,1l-0.2-1h-0.4v1.3H93v-0.9v-0.1V46l0.2,1.1h0.3l0.3-1.1v0.1v0.1v0.9h0.3v-1.3H93.5z"/>
	</g>
	<path class="st1" d="M61.3,45.6c-0.7,0-1.1,0.1-1.6,0.4l0.3,0.8c0.4-0.2,0.7-0.3,1.2-0.3c0.7,0,1,0.3,1,0.9v0.1
		c-0.3-0.1-0.7-0.2-1.2-0.2c-1,0-1.7,0.4-1.7,1.4l0,0c0,0.8,0.7,1.3,1.5,1.3c0.6,0,1.1-0.3,1.4-0.6v0.5h1v-2.5
		C63.1,46.3,62.5,45.6,61.3,45.6z M62.2,48.4c0,0.5-0.5,0.9-1.1,0.9c-0.5,0-0.8-0.2-0.8-0.6l0,0c0-0.4,0.4-0.7,1-0.7
		c0.4,0,0.7,0.1,1,0.2L62.2,48.4L62.2,48.4z"/>
	<path class="st1" d="M89,45.6c-1.2,0-2.1,1-2.1,2.2l0,0c0,1.3,0.9,2.2,2.2,2.2c0.8,0,1.3-0.3,1.7-0.8l-0.6-0.5
		c-0.3,0.3-0.7,0.5-1.1,0.5c-0.6,0-1.1-0.4-1.2-1.1H91c0-0.1,0-0.2,0-0.3C91,46.7,90.3,45.6,89,45.6z M87.9,47.5
		c0.1-0.7,0.5-1.1,1.1-1.1s1,0.5,1.1,1.1H87.9z"/>
	<path class="st1" d="M76.8,49.2c-0.7,0-1.3-0.6-1.3-1.4l0,0c0-0.7,0.5-1.3,1.2-1.3c0.5,0,0.8,0.2,1.1,0.5l0.6-0.6
		c-0.4-0.4-0.9-0.7-1.7-0.7c-1.3,0-2.2,1-2.2,2.2l0,0c0,1.2,0.9,2.2,2.2,2.2c0.8,0,1.3-0.3,1.7-0.8l-0.6-0.6
		C77.5,48.9,77.2,49.2,76.8,49.2z"/>
	<rect x="64.3" y="44.1" class="st1" width="1" height="5.8"/>
	<path class="st1" d="M67.7,44.5h-1v1.2h-0.5v0.8h0.5v2.2c0,0.9,0.5,1.2,1.2,1.2c0.4,0,0.6-0.1,0.9-0.2V49c-0.2,0.1-0.4,0.1-0.6,0.1
		c-0.3,0-0.5-0.2-0.5-0.5v-2.1h1.1v-0.8h-1.1V44.5L67.7,44.5z"/>
	<path class="st1" d="M72.1,45.6c-0.7,0-1,0.3-1.3,0.7V44h-1v5.8h1v-2.4c0-0.7,0.4-1,1-1s0.9,0.4,0.9,1v2.4h1v-2.7
		C73.6,46.2,73,45.6,72.1,45.6z"/>
	<path class="st2" d="M20.6,7.8c0-2,0.9-3.7,2.3-4.9c1.4,1.2,2.3,2.9,2.2,4.9c0,2-0.9,3.7-2.3,4.9C21.4,11.5,20.6,9.7,20.6,7.8
		 M27.4,2.8c-0.6,1.4-0.5,2.8,0.2,4.1c1.3-0.4,2.4-1.4,3-2.7s0.5-2.8-0.2-4.1C29.1,0.5,28,1.4,27.4,2.8 M15.1,4.1
		c0.6,1.4,1.7,2.3,3,2.8c0.6-1.2,0.7-2.7,0.2-4.1c-0.6-1.4-1.7-2.3-3-2.8C14.6,1.2,14.5,2.7,15.1,4.1 M7.2,13.7
		c1.4,0.6,2.8,0.5,4.1-0.2c-0.4-1.3-1.4-2.4-2.7-3C7.2,9.9,5.8,10,4.5,10.7C4.9,12,5.9,13.2,7.2,13.7 M37.1,10.6
		c-1.4,0.6-2.3,1.7-2.8,3c1.2,0.6,2.7,0.7,4.1,0.2c1.4-0.6,2.3-1.7,2.8-3C39.9,10.2,38.5,10.1,37.1,10.6 M33.4,16.1
		c-2,0-3.7,0.9-4.9,2.2c1.2,1.4,2.9,2.3,4.9,2.3s3.7-0.9,4.9-2.2C37.1,17,35.3,16.1,33.4,16.1 M28.7,9.3c-1.4,1.4-2,3.2-1.9,5
		c1.8,0.2,3.7-0.5,5-1.8c1.4-1.4,2-3.2,1.9-5C32,7.3,30.1,7.9,28.7,9.3 M12.3,16.1c-2,0-3.7,0.9-4.9,2.3c1.2,1.4,2.9,2.3,4.9,2.2
		c2,0,3.7-0.9,4.9-2.3C16,17,14.2,16.1,12.3,16.1 M16.9,9.3c-1.4-1.4-3.2-2-5-1.8c-0.1,1.8,0.5,3.7,1.9,5s3.2,2,5,1.8
		C18.9,12.5,18.3,10.7,16.9,9.3"/>
</g>
</svg>
