<?xml version="1.0" encoding="utf-8"?>
<!-- Generator: Adobe Illustrator 27.5.0, SVG Export Plug-In . SVG Version: 6.00 Build 0)  -->
<svg version="1.1" id="b5dc1ff5-0182-4621-94ad-8a07d6a20b7e"
	 xmlns="http://www.w3.org/2000/svg" xmlns:xlink="http://www.w3.org/1999/xlink" x="0px" y="0px" viewBox="0 0 150 50"
	 style="enable-background:new 0 0 150 50;" xml:space="preserve">
<style type="text/css">
	.st0{fill:#002677;}
</style>
<g>
	<path class="st0" d="M7.5,46.4L7.5,46.4c1.5,0.5,3.1,0.8,4.7,0.8c7.1,0,12.1-5.2,12.1-15V2.8l2.7-1.3v31.2
		c0,10.1-5.2,15.9-12.5,15.9C12.1,48.5,9.6,47.8,7.5,46.4z M4.4,43.4L4.4,43.4c1.6,0.5,3.3,0.9,4.7,0.9c6,0,10-3.8,10-12.3V5
		l2.7-1.3v28.5c0,8.9-4.5,13.5-10.8,13.5C8.8,45.7,6.4,44.8,4.4,43.4z M2.6,40.7L2.6,40.7c1.3,0.4,2.6,0.7,4,0.7
		c4.7,0,7.5-2.6,7.5-9.3V7.3L16.7,6v25.8c0,7.5-3.5,11-8.4,11C6.2,42.7,4.2,42,2.6,40.7z M11.6,32.9V8.3L0,13.5v19.9
		c0,3.8,2.4,6.4,5.9,6.4S11.6,37.2,11.6,32.9z"/>
	<path class="st0" d="M42,8.2v9.2c0,3.4,2,6,5.8,6c3.3,0,5.8-2.4,5.8-6.1V8.5c0-1,0.7-1.8,1.7-1.8c0,0,0,0,0,0l0.3,0V5.8h-5.8v0.9
		l0.4,0c1,0,1.7,0.8,1.7,1.8c0,0,0,0,0,0v8.6c0,2.8-1.5,4.5-3.7,4.5s-3.7-1.8-3.7-4.5V8.2c0-1,0.5-1.5,1.6-1.6l0.3,0V5.8h-6.5v0.9
		l0.4,0C41.5,6.7,42,7.3,42,8.2z"/>
	<path class="st0" d="M49.8,27.8l0.4,0c0.9,0,1.6,0.4,1.6,1.5v5.4h-6.5v-5.4c0-1,0.7-1.4,1.6-1.5l0.3,0v-0.9h-6.5v0.9l0.4,0
		c0.9,0,1.6,0.4,1.6,1.5v12.6c0,1-0.7,1.4-1.6,1.5l-0.4,0v0.9h6.5v-0.9l-0.3,0c-0.9-0.1-1.6-0.4-1.6-1.5V36h6.5v5.9
		c0,1-0.7,1.4-1.6,1.5l-0.4,0v0.9h6.5v-0.9l-0.3,0c-0.9-0.1-1.6-0.4-1.6-1.5V29.3c0-1,0.7-1.4,1.6-1.5l0.3,0v-0.9h-6.5V27.8z"/>
	<path class="st0" d="M55.7,10.8v0.8l0.5,0c0.8,0.1,1.2,0.4,1.2,1.5v7.6c0,1-0.5,1.4-1.4,1.5l-0.4,0v0.8h5.9v-0.8l-0.3,0
		c-0.8,0-1.4-0.4-1.4-1.5v-4c0-3,1.3-4.7,2.8-4.7c1.2,0,1.9,0.8,1.9,2.3v6.5c0,1-0.5,1.4-1.4,1.5l-0.4,0v0.8h5.9v-0.8l-0.3,0
		c-0.8,0-1.4-0.4-1.4-1.5V14c0-1.9-1.2-3.5-3.5-3.5c-1.7,0-3.1,1-3.7,2.7v-2.7L55.7,10.8z"/>
	<path class="st0" d="M89.4,23.3c2.5,0,3.9-1.7,4.5-3.6l-1.1-0.3c-0.5,1.3-1.4,2.4-3.1,2.4c-2,0-3.4-1.9-3.4-4.9h7.7v-0.7
		c0-3.2-1.9-5.8-4.9-5.8c-3.2,0-5.4,3.1-5.4,6.5S85.9,23.3,89.4,23.3z M89.2,11.8c1.4,0,2.2,1.3,2.3,3.9h-5
		C86.7,13.2,87.7,11.8,89.2,11.8L89.2,11.8z"/>
	<path class="st0" d="M77.3,20.3c0,1.9,1.2,3,3,3c1.7,0,2.9-1.3,3.4-3.1L82.8,20c-0.3,1-0.9,1.7-1.7,1.7c-1,0-1.4-0.8-1.4-1.7v-8
		h3.4v-1.3h-3.4V6.9h-1.2c-0.5,2.9-1.9,3.9-3.5,4.2V12h2.3L77.3,20.3z"/>
	<path class="st0" d="M72.1,8.5c0.9,0,1.6-0.8,1.6-1.7c0-0.9-0.7-1.5-1.6-1.6c-0.9,0-1.6,0.7-1.6,1.6C70.5,7.8,71.2,8.5,72.1,8.5
		C72.1,8.5,72.1,8.5,72.1,8.5z"/>
	<path class="st0" d="M71,13.1v7.6c0,1-0.5,1.4-1.4,1.5l-0.4,0v0.8h5.9v-0.8l-0.3,0c-0.8,0-1.4-0.4-1.4-1.5V10.5l-4.3,0.3v0.8l0.6,0
		C70.5,11.7,71,12.1,71,13.1z"/>
	<path class="st0" d="M100.4,23.3c1.6,0,2.9-0.8,3.4-2.3v2h4.1v-0.8l-0.3,0c-0.8,0-1.4-0.4-1.4-1.5V5.5L102,5.8v0.8l0.5,0
		c0.8,0,1.2,0.4,1.2,1.5v4.4c-0.5-1.4-1.8-2.2-3.4-2.2c-3.2,0-5.1,3.1-5.1,6.5S97.2,23.3,100.4,23.3z M100.8,11.8c1.8,0,3,2,3,5.1
		s-1.2,5.1-3,5.1c-1.7,0-2.9-1.9-2.9-5.1S99.1,11.8,100.8,11.8z"/>
	<path class="st0" d="M137.1,31.6c-1.4,0-2.7,0.9-3.2,2.6v-2.5l-4.1,0.3v0.8l0.5,0c0.8,0.1,1.2,0.4,1.2,1.5v7.6c0,1-0.5,1.4-1.4,1.5
		l-0.4,0v0.8h5.9v-0.8l-0.3,0c-0.8-0.1-1.4-0.4-1.4-1.5v-4.2c0-3.1,1.4-5,3-5c0.3,0,0.6,0.1,0.8,0.3c-0.4,0.2-0.7,0.7-0.7,1.2
		c0,0.7,0.6,1.3,1.3,1.3c0.7,0,1.3-0.6,1.3-1.4C139.7,32.5,138.5,31.6,137.1,31.6z"/>
	<path class="st0" d="M145.1,31.5c-3.2,0-5.4,3.1-5.4,6.5c0,3.4,2.1,6.5,5.6,6.5c2.5,0,3.9-1.7,4.5-3.6l-1.1-0.3
		c-0.5,1.3-1.4,2.4-3.1,2.4c-2,0-3.4-1.9-3.4-4.9h7.7v-0.7C150,34.1,148.1,31.5,145.1,31.5z M142.4,36.8c0.3-2.4,1.2-3.9,2.7-3.9
		c1.4,0,2.2,1.3,2.3,3.9H142.4z"/>
	<path class="st0" d="M127.7,42.2v-6.4c0-2.6-1.7-4.2-4.4-4.2c-2.4,0-4.5,1.6-4.5,3.4c0,0.7,0.6,1.3,1.3,1.3s1.3-0.6,1.3-1.3
		c0-0.5-0.3-0.9-0.7-1.2c0.4-0.6,1.2-1,2.2-1c1.5,0,2.4,1.1,2.4,3v0.6l-3.7,1.5c-2.4,1-3.3,1.9-3.3,3.5c0,1.9,1.3,3,3.4,3
		c1.6,0,2.9-1,3.5-2.4v0.4c0,1.3,0.9,2,2.4,2c0.5,0,1.1-0.1,1.6-0.2v-0.8C128.2,43.5,127.7,43.1,127.7,42.2z M125.3,39.4
		c-0.1,2.2-1.2,3.6-2.7,3.6c-1.1,0-1.8-0.7-1.8-1.9c0-1,0.5-1.8,1.6-2.2l2.9-1.3L125.3,39.4z"/>
	<path class="st0" d="M93,41.2c-0.3,1-0.9,1.7-1.7,1.7c-1,0-1.4-0.8-1.4-1.7v-8h3.4v-1.3h-3.4v-3.8h-1.2c-0.5,2.9-1.9,3.9-3.5,4.2
		v0.9h2.3v8.3c0,1.9,1.2,3,3,3c1.7,0,2.9-1.3,3.4-3.1L93,41.2z"/>
	<path class="st0" d="M77.4,42.2v-6.4c0-2.6-1.7-4.2-4.4-4.2c-2.4,0-4.5,1.6-4.5,3.4c0,0.7,0.6,1.3,1.3,1.3S71,35.7,71,35
		c0-0.5-0.3-0.9-0.7-1.2c0.4-0.6,1.2-1,2.2-1c1.5,0,2.4,1.1,2.4,3v0.6l-3.7,1.5c-2.4,1-3.3,1.9-3.3,3.5c0,1.9,1.3,3,3.4,3
		c1.6,0,2.9-1,3.5-2.4v0.4c0,1.3,0.9,2,2.4,2c0.5,0,1.1-0.1,1.6-0.2v-0.8C77.8,43.5,77.4,43.1,77.4,42.2z M74.9,39.4
		c-0.1,2.2-1.2,3.6-2.7,3.6c-1.1,0-1.8-0.7-1.8-1.9c0-1,0.5-1.8,1.6-2.2l2.9-1.3L74.9,39.4z"/>
	<path class="st0" d="M113.4,42.9c-2,0-3.4-1.9-3.4-4.9c0-3.1,1.3-5,3.3-5c0.9,0,1.6,0.3,2,0.8c-0.4,0.3-0.6,0.7-0.6,1.1
		c0,0.7,0.6,1.3,1.3,1.3c0.7,0,1.3-0.6,1.3-1.4c0-1.5-1.5-3.3-4.1-3.3c-3.7,0-5.8,3.1-5.8,6.5c0,3.4,2.1,6.5,5.6,6.5
		c2.4,0,3.8-1.6,4.4-3.5l-1.1-0.3C116,41.9,115.1,42.9,113.4,42.9z"/>
	<path class="st0" d="M83.6,41.9V26.6L79.4,27v0.8l0.5,0c0.8,0,1.2,0.4,1.2,1.5v12.6c0,1-0.5,1.4-1.4,1.5l-0.4,0v0.8h5.9v-0.8
		l-0.3,0C84.1,43.3,83.6,42.9,83.6,41.9z"/>
	<path class="st0" d="M105.2,41.9v-6.7c0-1.9-1.2-3.5-3.5-3.5c-1.7,0-3.1,1-3.7,2.7v-7.7L93.9,27v0.8l0.5,0c0.8,0,1.2,0.4,1.2,1.5
		v12.6c0,1-0.5,1.4-1.4,1.5l-0.4,0v0.8h5.9v-0.8l-0.3,0c-0.8-0.1-1.4-0.4-1.4-1.5v-4c0.1-3,1.3-4.7,2.8-4.7c1.2,0,1.9,0.8,1.9,2.3
		v6.5c0,1-0.5,1.4-1.4,1.5l-0.4,0v0.8h5.9v-0.8l-0.3,0C105.8,43.3,105.2,42.9,105.2,41.9z"/>
	<path class="st0" d="M62.2,31.5c-3.2,0-5.4,3.1-5.4,6.5c0,3.4,2.1,6.5,5.6,6.5c2.5,0,3.9-1.7,4.5-3.6l-1.1-0.3
		c-0.5,1.3-1.4,2.4-3.1,2.4c-2,0-3.4-1.9-3.4-4.9h7.7v-0.7C67.1,34.1,65.2,31.5,62.2,31.5z M59.5,36.8c0.3-2.4,1.2-3.9,2.7-3.9
		c1.4,0,2.2,1.3,2.3,3.9H59.5z"/>
</g>
</svg>
